<?xml version="1.0" encoding="UTF-8" standalone="no"?>
<svg
   xmlns:dc="http://purl.org/dc/elements/1.1/"
   xmlns:cc="http://creativecommons.org/ns#"
   xmlns:rdf="http://www.w3.org/1999/02/22-rdf-syntax-ns#"
   xmlns:svg="http://www.w3.org/2000/svg"
   xmlns="http://www.w3.org/2000/svg"
   xmlns:sodipodi="http://sodipodi.sourceforge.net/DTD/sodipodi-0.dtd"
   xmlns:inkscape="http://www.inkscape.org/namespaces/inkscape"
   xml:space="preserve"
   enable-background="new 0 0 90 90"
   viewBox="4.5 -9 480 121.5"
   height="90"
   width="480"
   y="0px"
   x="0px"
   id="Layer_1"
   version="1.1"
   inkscape:version="0.91 r13725"
   sodipodi:docname="logo.svg"><sodipodi:namedview
     pagecolor="#ffffff"
     bordercolor="#666666"
     borderopacity="1"
     objecttolerance="10"
     gridtolerance="10"
     guidetolerance="10"
     inkscape:pageopacity="0"
     inkscape:pageshadow="2"
     inkscape:window-width="1280"
     inkscape:window-height="755"
     id="namedview3485"
     showgrid="false"
     inkscape:zoom="0.53916892"
     inkscape:cx="239.58882"
     inkscape:cy="7.9058738"
     inkscape:window-x="0"
     inkscape:window-y="0"
     inkscape:window-maximized="0"
     inkscape:current-layer="Layer_1" /><metadata
     id="metadata17"><rdf:RDF><cc:Work
         rdf:about=""><dc:format>image/svg+xml</dc:format><dc:type
           rdf:resource="http://purl.org/dc/dcmitype/StillImage" /><dc:title></dc:title></cc:Work></rdf:RDF></metadata><defs
     id="defs15" /><path
     style="fill:#d9534f;fill-opacity:1"
     id="path3"
     d="m -48.848309,16.695232 c -1.982814,0 -3.589395,-1.60658 -3.589395,-3.589394 l 0,-14.8579014 c 0,-1.9828137 1.606581,-3.5893945 3.589395,-3.5893945 1.977534,0 3.586754,1.6065808 3.586754,3.5893945 l 0,14.8592214 c 0,1.981494 -1.60922,3.588074 -3.586754,3.588074 z"
     inkscape:connector-curvature="0" /><path
     style="fill:#d9534f;fill-opacity:1"
     id="path5"
     d="m -5.0006698,16.695232 c -1.980173,0 -3.5867541,-1.60658 -3.5867541,-3.589394 l 0,-14.8579014 c 0,-1.9828137 1.6065811,-3.5893945 3.5867541,-3.5893945 1.9828151,0 3.5893953,1.6065808 3.5893953,3.5893945 l 0,14.8592214 c 0,1.981494 -1.6065802,3.588074 -3.5893953,3.588074 z"
     inkscape:connector-curvature="0" /><path
     style="fill:#d9534f;fill-opacity:1"
     id="path7"
     d="m -41.282725,86.479185 -4.174206,0 0,-19.351575 3.08379,0 c 0.172935,-0.855434 0.381512,-1.691068 0.608573,-2.518781 l -3.692363,0 0,-18.728479 15.53776,0 c 1.334636,-1.155102 2.7498,-2.215155 4.237571,-3.176199 l 0,-17.465129 17.2631511,0 0,11.523288 c 0.830354,-0.07524 1.6699471,-0.12145 2.5121811,-0.138612 l 0,-11.383357 15.2644977,0 0,14.164841 c 1.5933791,0.649498 3.1326341,1.403282 4.6072041,2.253437 l 0,-28.039256 c 0,-4.6613284 -3.792693,-8.4566611 -8.4540222,-8.4566611 l -3.5946751,0 0,7.9444561 c 0,3.821735 -3.1009512,6.920047 -6.9200455,6.920047 -3.8190951,0 -6.9160862,-3.099631 -6.9160862,-6.920047 l 0,-7.9444561 -30.011508,0 0,7.9444561 c 0,3.821735 -3.099631,6.920047 -6.917406,6.920047 -3.823055,0 -6.920046,-3.099631 -6.920046,-6.920047 l 0,-7.9444561 -3.597315,0 c -4.663969,0 -8.456661,3.7953327 -8.456661,8.4566611 l 0,69.014326 c 0,4.663968 3.792692,8.459301 8.456661,8.459301 l 19.912625,0 c -0.706263,-1.48909 -1.317476,-3.028346 -1.82968,-4.613805 z m -4.175526,-61.241484 17.26183,0 0,18.125188 -17.26183,0 0,-18.125188 z m -2.516141,61.241484 -11.391278,0 c -2.118786,0 -3.844177,-1.72539 -3.844177,-3.844175 l 0,-15.5074 15.235455,0 0,19.351575 z m 0,-21.870356 -15.235455,0 0,-18.728479 15.235455,0 0,18.728479 z m 0,-21.24594 -15.235455,0 0,-18.125188 15.235455,0 0,18.125188 z"
     inkscape:connector-curvature="0" /><path
     style="fill:#d9534f;fill-opacity:1"
     id="path9"
     d="m -5.0006698,107.18256 c -17.8915262,0 -32.4457992,-14.556916 -32.4457992,-32.451083 0,-17.891527 14.554273,-32.443162 32.4457992,-32.443162 17.8941698,0 32.4484438,14.551635 32.4484438,32.443162 0,17.894167 -14.554274,32.451083 -32.4484438,32.451083 z m 0,-57.422391 c -13.7714462,0 -24.9739462,11.199862 -24.9739462,24.971308 0,13.774086 11.2025,24.976588 24.9739462,24.976588 13.7740887,0 24.9739488,-11.202502 24.9739488,-24.976588 0,-13.771446 -11.1998601,-24.971308 -24.9739488,-24.971308 z"
     inkscape:connector-curvature="0" /><path
     style="fill:#d9534f;fill-opacity:1"
     id="path11"
     d="M 14.295462,66.728936 C 11.506057,64.892654 5.6711468,66.187688 -0.80402051,68.685348 L -12.176819,57.577895 l -3.830975,0.134651 9.1457612,13.554948 c -3.7649702,1.733311 -7.4903352,3.65804 -10.7536612,5.437555 l -4.719413,-3.565631 -1.960372,0.223099 4.876507,6.141178 0.414516,7.828286 1.619781,-1.127379 1.173584,-5.799268 c 3.622397,-0.830353 7.6909931,-1.861363 11.6566213,-3.053429 L -2.4251247,93.564247 0.53193559,91.116752 1.6896766,75.262164 C 8.1952079,72.848992 13.424185,69.951338 14.295462,66.728936 Z"
     inkscape:connector-curvature="0" /><g
     transform="matrix(1.3182126,0,0,1.5117477,-63.274783,-14.630586)"
     style="font-style:normal;font-weight:normal;font-size:40px;line-height:125%;font-family:arial;-inkscape-font-specification:arial;letter-spacing:0px;word-spacing:0px;fill:#d9534f;fill-opacity:1;stroke:none;stroke-width:1px;stroke-linecap:butt;stroke-linejoin:miter;stroke-opacity:1"
     id="flowRoot3487"><path
       d="m 97.184219,55.210931 9.900001,-33.6 9.96,0 -15.24,43.32 -9.420001,0 -14.88,-43.32 10.02,0 9.66,33.6 z"
       style="font-style:normal;font-variant:normal;font-weight:bold;font-stretch:normal;font-family:Doradani;-inkscape-font-specification:'Doradani Bold'"
       id="path3521" /><path
       d="m 128.58109,64.930931 -8.82,0 0,-31.56 8.82,0 0,31.56 z m -4.38,-45.48 q 2.28,0 3.78,1.26 1.5,1.26 1.5,3 0,1.92 -1.5,3.12 -1.5,1.2 -3.78,1.2 -2.16,0 -3.72,-1.2 -1.5,-1.2 -1.5,-3.12 0,-1.74 1.5,-3 1.56,-1.26 3.72,-1.26 z"
       style="font-style:normal;font-variant:normal;font-weight:bold;font-stretch:normal;font-family:Doradani;-inkscape-font-specification:'Doradani Bold'"
       id="path3523" /><path
       d="m 155.22484,41.170931 q -2.22,-0.78 -4.32,-1.08 -2.1,-0.36 -4.08,-0.36 -1.92,0 -2.7,0.48 -0.78,0.42 -0.78,1.38 0,1.14 1.14,1.98 1.14,0.84 2.82,1.62 1.74,0.78 3.72,1.62 1.98,0.84 3.66,2.04 1.74,1.14 2.88,2.76 1.14,1.62 1.14,3.9 0,2.1 -0.96,3.9 -0.9,1.8 -2.64,3.18 -1.68,1.38 -4.14,2.16 -2.4,0.78 -5.34,0.78 -5.88,0 -11.28,-1.74 l 1.98,-6.84 q 4.32,1.8 9.06,1.8 2.1,0 3.48,-0.78 1.44,-0.78 1.44,-2.52 0,-1.5 -1.56,-2.34 -1.56,-0.84 -3.96,-1.8 -1.98,-0.78 -3.78,-1.68 -1.74,-0.9 -3.06,-2.1 -1.32,-1.2 -2.1,-2.7 -0.78,-1.56 -0.78,-3.66 0,-3.78 2.88,-6 2.94,-2.28 8.76,-2.28 5.4,0 9.84,2.04 l -1.32,6.24 z"
       style="font-style:normal;font-variant:normal;font-weight:bold;font-stretch:normal;font-family:Doradani;-inkscape-font-specification:'Doradani Bold'"
       id="path3525" /><path
       d="m 176.95797,32.890931 q 3.12,0 5.16,0.72 2.1,0.66 3.36,1.98 1.26,1.26 1.74,3.18 0.54,1.86 0.54,4.2 l 0,21.96 -7.2,0 q -0.06,-0.06 -0.12,-0.6 -0.06,-0.54 -0.12,-1.2 -0.06,-0.66 -0.12,-1.2 -0.06,-0.6 -0.06,-0.72 -1.8,2.16 -3.96,3.3 -2.16,1.08 -4.86,1.08 -2.64,0 -4.5,-0.72 -1.8,-0.72 -3,-1.92 -1.2,-1.26 -1.74,-2.88 -0.54,-1.62 -0.54,-3.48 0,-2.88 1.2,-4.98 1.2,-2.1 3.48,-3.42 2.34,-1.38 5.64,-1.98 3.3,-0.66 7.44,-0.66 l 0,-3.12 q 0,-2.7 -2.58,-2.7 -4.98,0 -10.32,3 l -3.3,-5.04 q 2.88,-2.28 6.36,-3.54 3.54,-1.26 7.5,-1.26 z m 2.34,17.52 q -1.62,0.18 -3.24,0.54 -1.56,0.3 -2.88,0.96 -1.32,0.6 -2.16,1.62 -0.78,1.02 -0.78,2.64 0,1.74 0.84,2.4 0.84,0.6 2.04,0.6 1.98,0 3.66,-1.26 1.68,-1.26 2.52,-3.06 l 0,-4.44 z"
       style="font-style:normal;font-variant:normal;font-weight:bold;font-stretch:normal;font-family:Doradani;-inkscape-font-specification:'Doradani Bold'"
       id="path3527" /><path
       d="m 212.12734,20.830931 q 2.64,0 4.8,0.36 2.16,0.36 4.02,1.08 1.92,0.72 3.6,1.86 1.68,1.08 3.36,2.64 l -3.12,3.54 q -1.44,-1.2 -2.82,-2.1 -1.38,-0.9 -2.94,-1.5 -1.5,-0.66 -3.3,-0.96 -1.8,-0.3 -4.02,-0.3 -2.34,0 -4.14,1.32 -1.8,1.26 -3,3.6 -1.2,2.28 -1.86,5.52 -0.6,3.24 -0.6,7.14 0,4.02 0.6,7.38 0.66,3.3 1.92,5.7 1.26,2.4 3.12,3.72 1.92,1.32 4.5,1.32 4.08,0 7.08,-1.2 3.06,-1.26 5.94,-3.66 l 3.12,3.48 q -3.24,3.18 -7.2,4.62 -3.96,1.38 -9.66,1.38 -4.2,0 -7.14,-1.62 -2.88,-1.62 -4.74,-4.56 -1.8,-3 -2.64,-7.2 -0.78,-4.2 -0.78,-9.36 0,-5.04 0.84,-9.12 0.84,-4.14 2.7,-7.02 1.92,-2.88 4.92,-4.44 3.06,-1.62 7.44,-1.62 z"
       style="font-style:normal;font-variant:normal;font-weight:normal;font-stretch:normal;font-size:60px;font-family:Doradani;-inkscape-font-specification:Doradani;fill:#d9534f;fill-opacity:1"
       id="path3529" /><path
       d="m 243.47547,32.770931 q 3.78,0 6.24,1.38 2.52,1.32 3.96,3.66 1.5,2.28 2.1,5.28 0.6,2.94 0.6,6.18 0,3.24 -0.66,6.24 -0.6,2.94 -2.1,5.22 -1.44,2.22 -3.96,3.54 -2.46,1.32 -6.18,1.32 -3.78,0 -6.3,-1.32 -2.46,-1.32 -3.96,-3.54 -1.44,-2.28 -2.04,-5.22 -0.54,-3 -0.54,-6.24 0,-3.24 0.6,-6.18 0.66,-3 2.1,-5.28 1.5,-2.34 3.96,-3.66 2.46,-1.38 6.18,-1.38 z m 0,4.5 q -1.92,0 -3.36,0.96 -1.38,0.96 -2.28,2.58 -0.9,1.62 -1.38,3.84 -0.42,2.16 -0.42,4.62 0,2.46 0.42,4.62 0.48,2.16 1.38,3.78 0.9,1.62 2.28,2.58 1.44,0.96 3.36,0.96 1.92,0 3.3,-0.96 1.44,-0.96 2.34,-2.58 0.96,-1.62 1.38,-3.78 0.48,-2.16 0.48,-4.62 0,-2.46 -0.48,-4.62 -0.42,-2.22 -1.38,-3.84 -0.9,-1.62 -2.34,-2.58 -1.38,-0.96 -3.3,-0.96 z"
       style="font-style:normal;font-variant:normal;font-weight:normal;font-stretch:normal;font-size:60px;font-family:Doradani;-inkscape-font-specification:Doradani;fill:#d9534f;fill-opacity:1"
       id="path3531" /><path
       d="m 268.48984,33.370931 0,24.3 q 0,1.74 0.96,2.52 0.96,0.78 2.34,0.78 1.5,0 3.6,-1.14 2.1,-1.2 4.26,-3.48 l 0,-22.98 5.46,0 0,31.56 -4.44,0 q -0.6,-2.22 -0.6,-4.08 -2.16,1.98 -4.8,3.3 -2.58,1.26 -5.52,1.26 -2.04,0 -3.36,-0.66 -1.26,-0.72 -1.98,-1.86 -0.72,-1.2 -1.02,-2.64 -0.24,-1.5 -0.24,-3.06 l 0,-23.82 5.34,0 z"
       style="font-style:normal;font-variant:normal;font-weight:normal;font-stretch:normal;font-size:60px;font-family:Doradani;-inkscape-font-specification:Doradani;fill:#d9534f;fill-opacity:1"
       id="path3533" /><path
       d="m 312.37609,64.930931 0,-24.54 q 0,-1.74 -1.08,-2.4 -1.08,-0.72 -2.58,-0.72 -1.8,0 -4.02,1.2 -2.22,1.2 -4.38,3.48 l 0,22.98 -5.46,0 0,-31.56 4.44,0 q 0.6,2.22 0.6,4.08 2.22,-1.92 4.98,-3.3 2.76,-1.38 5.82,-1.38 2.04,0 3.36,0.72 1.38,0.66 2.16,1.8 0.84,1.08 1.14,2.58 0.36,1.44 0.36,3 l 0,24.06 -5.34,0 z"
       style="font-style:normal;font-variant:normal;font-weight:normal;font-stretch:normal;font-size:60px;font-family:Doradani;-inkscape-font-specification:Doradani;fill:#d9534f;fill-opacity:1"
       id="path3535" /><path
       d="m 332.32234,33.370931 8.52,0 0,4.08 -8.52,0 0,19.92 q 0,3.36 2.28,3.36 1.32,0 2.64,-0.9 1.38,-0.96 2.22,-2.28 l 2.46,3.24 q -0.3,0.48 -1.14,1.26 -0.78,0.72 -1.92,1.44 -1.08,0.72 -2.4,1.26 -1.32,0.48 -2.58,0.48 -7.02,0 -7.02,-6.6 l 0,-21.18 -4.74,0 0,-4.08 4.74,0 0,-8.16 5.46,0 0,8.16 z"
       style="font-style:normal;font-variant:normal;font-weight:normal;font-stretch:normal;font-size:60px;font-family:Doradani;-inkscape-font-specification:Doradani;fill:#d9534f;fill-opacity:1"
       id="path3537" /><path
       d="m 368.26422,64.930931 -4.44,0 q -0.3,-1.02 -0.42,-1.92 -0.12,-0.96 -0.12,-2.1 -1.92,2.52 -4.38,3.6 -2.4,1.08 -4.5,1.08 -3.42,0 -5.52,-1.26 -2.1,-1.26 -3.3,-3.36 -1.14,-2.16 -1.56,-4.86 -0.42,-2.76 -0.42,-5.7 0,-3.96 0.6,-7.2 0.66,-3.24 2.1,-5.58 1.44,-2.34 3.78,-3.6 2.4,-1.26 5.94,-1.26 3.84,0 7.02,2.7 l 0,-16.14 5.22,0 0,45.6 z m -10.98,-27.66 q -2.04,0 -3.6,0.66 -1.5,0.66 -2.58,2.16 -1.02,1.5 -1.56,3.96 -0.48,2.46 -0.48,6.06 0,6 1.26,8.58 1.32,2.52 4.56,2.52 1.38,0 2.76,-0.54 1.38,-0.6 2.52,-1.5 1.14,-0.9 1.92,-1.98 0.78,-1.08 0.96,-2.1 l 0,-15 q -1.14,-1.32 -2.7,-2.04 -1.5,-0.78 -3.06,-0.78 z"
       style="font-style:normal;font-variant:normal;font-weight:normal;font-stretch:normal;font-size:60px;font-family:Doradani;-inkscape-font-specification:Doradani;fill:#d9534f;fill-opacity:1"
       id="path3539" /><path
       d="m 388.31922,32.770931 q 3.78,0 6.24,1.38 2.52,1.32 3.96,3.66 1.5,2.28 2.1,5.28 0.6,2.94 0.6,6.18 0,3.24 -0.66,6.24 -0.6,2.94 -2.1,5.22 -1.44,2.22 -3.96,3.54 -2.46,1.32 -6.18,1.32 -3.78,0 -6.3,-1.32 -2.46,-1.32 -3.96,-3.54 -1.44,-2.28 -2.04,-5.22 -0.54,-3 -0.54,-6.24 0,-3.24 0.6,-6.18 0.66,-3 2.1,-5.28 1.5,-2.34 3.96,-3.66 2.46,-1.38 6.18,-1.38 z m 0,4.5 q -1.92,0 -3.36,0.96 -1.38,0.96 -2.28,2.58 -0.9,1.62 -1.38,3.84 -0.42,2.16 -0.42,4.62 0,2.46 0.42,4.62 0.48,2.16 1.38,3.78 0.9,1.62 2.28,2.58 1.44,0.96 3.36,0.96 1.92,0 3.3,-0.96 1.44,-0.96 2.34,-2.58 0.96,-1.62 1.38,-3.78 0.48,-2.16 0.48,-4.62 0,-2.46 -0.48,-4.62 -0.42,-2.22 -1.38,-3.84 -0.9,-1.62 -2.34,-2.58 -1.38,-0.96 -3.3,-0.96 z"
       style="font-style:normal;font-variant:normal;font-weight:normal;font-stretch:normal;font-size:60px;font-family:Doradani;-inkscape-font-specification:Doradani;fill:#d9534f;fill-opacity:1"
       id="path3541" /><path
       d="m 420.67047,33.370931 6.18,0 5.52,23.76 5.46,-23.76 5.82,0 -9,31.56 -4.86,0 -6,-24.3 -5.88,24.3 -5.94,0 -8.76,-31.56 6.48,0 5.4,23.76 5.58,-23.76 z"
       style="font-style:normal;font-variant:normal;font-weight:normal;font-stretch:normal;font-size:60px;font-family:Doradani;-inkscape-font-specification:Doradani;fill:#d9534f;fill-opacity:1"
       id="path3543" /><path
       d="m 466.00891,64.930931 0,-24.54 q 0,-1.74 -1.08,-2.4 -1.08,-0.72 -2.58,-0.72 -1.8,0 -4.02,1.2 -2.22,1.2 -4.38,3.48 l 0,22.98 -5.46,0 0,-31.56 4.44,0 q 0.6,2.22 0.6,4.08 2.22,-1.92 4.98,-3.3 2.76,-1.38 5.82,-1.38 2.04,0 3.36,0.72 1.38,0.66 2.16,1.8 0.84,1.08 1.14,2.58 0.36,1.44 0.36,3 l 0,24.06 -5.34,0 z"
       style="font-style:normal;font-variant:normal;font-weight:normal;font-stretch:normal;font-size:60px;font-family:Doradani;-inkscape-font-specification:Doradani;fill:#d9534f;fill-opacity:1"
       id="path3545" /></g><text
     xml:space="preserve"
     style="font-style:normal;font-weight:normal;font-size:12.14999962px;line-height:125%;font-family:arial;-inkscape-font-specification:arial;letter-spacing:0px;word-spacing:0px;fill:#000000;fill-opacity:1;stroke:none;stroke-width:1px;stroke-linecap:butt;stroke-linejoin:miter;stroke-opacity:1"
     x="217.28058"
     y="-63.395706"
     id="text4299"
     sodipodi:linespacing="125%"><tspan
       sodipodi:role="line"
       id="tspan4301"
       x="217.28058"
       y="-63.395706" /></text>
</svg>