<?xml version="1.0" encoding="UTF-8" standalone="no"?>
<svg
   xmlns:dc="http://purl.org/dc/elements/1.1/"
   xmlns:cc="http://creativecommons.org/ns#"
   xmlns:rdf="http://www.w3.org/1999/02/22-rdf-syntax-ns#"
   xmlns:svg="http://www.w3.org/2000/svg"
   xmlns="http://www.w3.org/2000/svg"
   xml:space="preserve"
   enable-background="new 0 0 90 90"
   viewBox="4.5 -9.0 90.0 121.5"
   height="90px"
   width="90px"
   y="0px"
   x="0px"
   id="Layer_1"
   version="1.1"><metadata
     id="metadata17"><rdf:RDF><cc:Work
         rdf:about=""><dc:format>image/svg+xml</dc:format><dc:type
           rdf:resource="http://purl.org/dc/dcmitype/StillImage" /><dc:title></dc:title></cc:Work></rdf:RDF></metadata><defs
     id="defs15" /><path
     style="fill:#d9534f;fill-opacity:1"
     id="path3"
     d="m 21.35169,16.695232 c -1.982814,0 -3.589395,-1.60658 -3.589395,-3.589394 l 0,-14.8579014 c 0,-1.9828137 1.606581,-3.5893945 3.589395,-3.5893945 1.977534,0 3.586754,1.6065808 3.586754,3.5893945 l 0,14.8592214 c 0,1.981494 -1.60922,3.588074 -3.586754,3.588074 z" /><path
     style="fill:#d9534f;fill-opacity:1"
     id="path5"
     d="m 65.199331,16.695232 c -1.980173,0 -3.586754,-1.60658 -3.586754,-3.589394 l 0,-14.8579014 c 0,-1.9828137 1.606581,-3.5893945 3.586754,-3.5893945 1.982815,0 3.589395,1.6065808 3.589395,3.5893945 l 0,14.8592214 c 0,1.981494 -1.60658,3.588074 -3.589395,3.588074 z" /><path
     style="fill:#d9534f;fill-opacity:1"
     id="path7"
     d="m 28.917274,86.479185 -4.174206,0 0,-19.351575 3.08379,0 c 0.172935,-0.855434 0.381512,-1.691068 0.608573,-2.518781 l -3.692363,0 0,-18.728479 15.537761,0 c 1.334636,-1.155102 2.7498,-2.215155 4.237571,-3.176199 l 0,-17.465129 17.263152,0 0,11.523288 c 0.830354,-0.07524 1.669947,-0.12145 2.512181,-0.138612 l 0,-11.383357 15.264497,0 0,14.164841 c 1.593379,0.649498 3.132634,1.403282 4.607204,2.253437 l 0,-28.039256 c 0,-4.6613284 -3.792693,-8.4566611 -8.454022,-8.4566611 l -3.594675,0 0,7.9444561 c 0,3.821735 -3.100951,6.920047 -6.920045,6.920047 -3.819095,0 -6.916086,-3.099631 -6.916086,-6.920047 l 0,-7.9444561 -30.01151,0 0,7.9444561 c 0,3.821735 -3.099631,6.920047 -6.917406,6.920047 -3.823055,0 -6.920046,-3.099631 -6.920046,-6.920047 l 0,-7.9444561 -3.597315,0 c -4.6639687,0 -8.4566607,3.7953327 -8.4566607,8.4566611 l 0,69.014326 c 0,4.663968 3.792692,8.459301 8.4566607,8.459301 l 19.912625,0 c -0.706263,-1.48909 -1.317476,-3.028346 -1.82968,-4.613805 z m -4.175526,-61.241484 17.261831,0 0,18.125188 -17.261831,0 0,-18.125188 z m -2.516141,61.241484 -11.391278,0 c -2.1187856,0 -3.8441763,-1.72539 -3.8441763,-3.844175 l 0,-15.5074 15.2354543,0 0,19.351575 z m 0,-21.870356 -15.2354543,0 0,-18.728479 15.2354543,0 0,18.728479 z m 0,-21.24594 -15.2354543,0 0,-18.125188 15.2354543,0 0,18.125188 z" /><path
     style="fill:#d9534f;fill-opacity:1"
     id="path9"
     d="m 65.199331,107.18256 c -17.891527,0 -32.445801,-14.556916 -32.445801,-32.451083 0,-17.891527 14.554274,-32.443162 32.445801,-32.443162 17.894169,0 32.448443,14.551635 32.448443,32.443162 0,17.894167 -14.554274,32.451083 -32.448443,32.451083 z m 0,-57.422391 c -13.771446,0 -24.973947,11.199862 -24.973947,24.971308 0,13.774086 11.202501,24.976588 24.973947,24.976588 13.774088,0 24.973948,-11.202502 24.973948,-24.976588 0,-13.771446 -11.19986,-24.971308 -24.973948,-24.971308 z" /><path
     style="fill:#d9534f;fill-opacity:1"
     id="path11"
     d="M 84.495462,66.728936 C 81.706057,64.892654 75.871147,66.187688 69.39598,68.685348 l -11.372798,-11.107453 -3.830975,0.134651 9.145761,13.554948 c -3.76497,1.733311 -7.490335,3.65804 -10.753661,5.437555 l -4.719414,-3.565631 -1.960372,0.223099 4.876508,6.141178 0.414516,7.828286 1.619781,-1.127379 1.173584,-5.799268 c 3.622397,-0.830353 7.690993,-1.861363 11.656621,-3.053429 l 2.129345,16.212342 2.95706,-2.447495 1.157741,-15.854588 c 6.505531,-2.413172 11.734508,-5.310826 12.605785,-8.533228 z" /></svg>