<?xml version="1.0" encoding="UTF-8" standalone="no"?>
<svg
   xmlns:dc="http://purl.org/dc/elements/1.1/"
   xmlns:cc="http://creativecommons.org/ns#"
   xmlns:rdf="http://www.w3.org/1999/02/22-rdf-syntax-ns#"
   xmlns:svg="http://www.w3.org/2000/svg"
   xmlns="http://www.w3.org/2000/svg"
   height="85"
   width="85"
   id="svg2"
   xml:space="preserve"
   viewBox="0 0 85 85"
   y="0px"
   x="0px"
   version="1.1"><metadata
     id="metadata20"><rdf:RDF><cc:Work
         rdf:about=""><dc:format>image/svg+xml</dc:format><dc:type
           rdf:resource="http://purl.org/dc/dcmitype/StillImage" /><dc:title></dc:title></cc:Work></rdf:RDF></metadata><defs
     id="defs18" /><g
     transform="matrix(0.98370521,0,0,0.98370521,-5.3720142,-6.5819413)"
     id="g4"><g
       id="g6"><path
         id="path8"
         d="m 48.631,7.291 c -28.781,0 -43.17,14.251 -43.17,42.752 0,28.501 14.389,42.751 43.17,42.751 28.825,0 43.238,-14.25 43.238,-42.751 C 91.869,21.542 77.456,7.291 48.631,7.291 Z M 73.852,76.06 c -5.288,5.497 -13.694,8.246 -25.221,8.246 -11.436,0 -19.81,-2.748 -25.12,-8.246 -5.31,-5.496 -7.965,-14.169 -7.965,-26.017 0,-11.849 2.655,-20.522 7.965,-26.018 5.31,-5.497 13.684,-8.246 25.12,-8.246 11.527,0 19.933,2.749 25.221,8.246 5.287,5.496 7.931,14.169 7.931,26.018 0,11.848 -2.644,20.52 -7.931,26.017 z"
         style="fill:#5cb85c" /><path
         id="path10"
         d="m 58.125,43.057 -18.365,0 0,-7.865 c 0,-4.614 3.754,-8.368 8.368,-8.368 4.614,0 8.368,3.754 8.368,8.368 l 6.315,0 c 0,-8.097 -6.587,-14.683 -14.683,-14.683 -8.096,0 -14.683,6.587 -14.683,14.683 l 0,9.431 0.183,0 c -0.794,0.625 -1.369,1.358 -1.778,2.052 -0.973,1.406 -1.486,3.045 -1.486,4.753 l 0,16.704 c 0,1.708 0.513,3.347 1.486,4.753 0.993,1.689 2.954,3.618 6.724,3.618 l 19.551,0 c 4.274,0 8.841,-2.82 8.841,-10.736 l 0,-11.974 c 0,-7.916 -4.567,-10.736 -8.841,-10.736 z m 2.526,22.71 c 0,4.421 -1.706,4.421 -2.526,4.421 l -19.551,0 c -1,0 -1.16,-0.287 -1.302,-0.541 l -0.2,-0.315 c -0.179,-0.247 -0.393,-0.656 -0.393,-1.2 l 0,-16.704 c 0,-0.543 0.213,-0.952 0.393,-1.2 l 0.2,-0.315 c 0.141,-0.253 0.302,-0.541 1.302,-0.541 l 19.551,0 c 0.82,0 2.526,0 2.526,4.421 l 0,11.974 z"
         style="fill:#5cb85c" /></g></g></svg>