<?xml version="1.0" encoding="UTF-8" standalone="no"?>
<svg
   xmlns:dc="http://purl.org/dc/elements/1.1/"
   xmlns:cc="http://creativecommons.org/ns#"
   xmlns:rdf="http://www.w3.org/1999/02/22-rdf-syntax-ns#"
   xmlns:svg="http://www.w3.org/2000/svg"
   xmlns="http://www.w3.org/2000/svg"
   height="48"
   width="48"
   id="svg2"
   xml:space="preserve"
   enable-background="new 0 0 48 48"
   viewBox="0 0 48 48"
   y="0px"
   x="0px"
   version="1.1"><metadata
     id="metadata34"><rdf:RDF><cc:Work
         rdf:about=""><dc:format>image/svg+xml</dc:format><dc:type
           rdf:resource="http://purl.org/dc/dcmitype/StillImage" /><dc:title></dc:title></cc:Work></rdf:RDF></metadata><defs
     id="defs32" /><path
     d="m 2,9.2 -2,0 C 0,7.1 1.3,5.2 3.1,4.8 L 24.9,0 c 0.8,-0.2 1.6,0 2.3,0.5 0.8,0.6 1.2,1.7 1.2,2.9 l 0,3.4 -2,0 0,-3.4 C 26.4,2.8 26.2,2.3 25.9,2.1 25.8,2 25.6,1.9 25.3,2 L 3.5,6.8 C 2.7,7 2,8.1 2,9.2 Z"
     id="path6"
     style="fill:#d9534f" /><path
     d="M 29.1,48 4.2,48 C 1.8,48 0,46.2 0,43.8 L 0,9.8 C 0,7.4 1.8,5.6 4.2,5.6 l 24.9,0 c 2.4,0 4.2,1.8 4.2,4.2 l 0,34 c 0,2.3 -1.9,4.2 -4.2,4.2 z M 4.2,7.6 C 2.9,7.6 2,8.5 2,9.8 l 0,34 C 2,45.1 2.9,46 4.2,46 l 24.9,0 c 1.2,0 2.2,-1 2.2,-2.2 l 0,-34 c 0,-1.3 -0.9,-2.2 -2.2,-2.2 l -24.9,0 z"
     id="path8"
     style="fill:#d9534f" /><path
     d="m 48,43.5 -16.7,0 0,-32.9 16.7,0 0,32.9 z m -14.7,-2 12.7,0 0,-28.9 -12.7,0 0,28.9 z"
     id="path10"
     style="fill:#d9534f" /><g
     transform="matrix(0.90256997,0,0,0.90256997,1.7163792,-3.4863058)"
     id="g3372"><path
       style="fill:#d9534f"
       id="path12"
       d="M 16,36.5 C 10.1,36.5 5.3,31.7 5.3,25.8 5.3,19.9 10.1,15.1 16,15.1 c 5.9,0 10.7,4.8 10.7,10.7 0,5.9 -4.8,10.7 -10.7,10.7 z m 0,-19.4 c -4.8,0 -8.7,3.9 -8.7,8.7 0,4.8 3.9,8.7 8.7,8.7 4.8,0 8.7,-3.9 8.7,-8.7 0,-4.8 -3.9,-8.7 -8.7,-8.7 z" /><path
       style="fill:#d9534f"
       id="path14"
       d="m 16,36.5 c -3.3,0 -5.8,-4.7 -5.8,-10.7 0,-6 2.5,-10.7 5.8,-10.7 3.3,0 5.8,4.7 5.8,10.7 0,6 -2.5,10.7 -5.8,10.7 z m 0,-19.4 c -1.8,0 -3.8,3.6 -3.8,8.7 0,5.1 2,8.7 3.8,8.7 1.8,0 3.8,-3.6 3.8,-8.7 0,-5.1 -2,-8.7 -3.8,-8.7 z" /><rect
       style="fill:#d9534f"
       id="rect16"
       height="19.4"
       width="2"
       y="16.1"
       x="15" /><rect
       style="fill:#d9534f"
       id="rect18"
       height="2"
       width="19.299999"
       y="24.799999"
       x="6.4000001" /></g><rect
     x="32.299999"
     y="16.5"
     width="9.3000002"
     height="2"
     id="rect20"
     style="fill:#d9534f" /><rect
     x="32.299999"
     y="21.099998"
     width="9.3000002"
     height="2"
     id="rect22"
     style="fill:#d9534f" /><rect
     x="32.299999"
     y="35.700001"
     width="9.3000002"
     height="2"
     id="rect24"
     style="fill:#d9534f" /><g
     id="flowRoot3378"
     style="font-style:normal;font-weight:normal;font-size:9px;line-height:125%;font-family:arial;-inkscape-font-specification:arial;letter-spacing:0px;word-spacing:0px;fill:#d9534f;fill-opacity:1;stroke:none;stroke-width:1px;stroke-linecap:butt;stroke-linejoin:miter;stroke-opacity:1"
     transform="translate(-0.25423729,0)"><path
       id="path3348"
       style="font-style:normal;font-variant:normal;font-weight:bold;font-stretch:normal;font-size:7.5px;font-family:arial;-inkscape-font-specification:'arial Bold';text-align:center;text-anchor:middle"
       d="m 7.3151855,40.431354 0,-5.368652 1.739502,0 q 0.9887695,0 1.2890625,0.08057 0.461426,0.120849 0.772705,0.527343 0.311279,0.402832 0.311279,1.043701 0,0.494385 -0.179443,0.831299 -0.179443,0.336914 -0.457764,0.531006 -0.274658,0.19043 -0.560302,0.252686 -0.388184,0.0769 -1.124268,0.0769 l -0.7067871,0 0,2.025146 -1.0839844,0 z m 1.0839844,-4.460449 0,1.523438 0.5932617,0 q 0.6408692,0 0.8569336,-0.08423 0.2160648,-0.08423 0.3369138,-0.263672 0.124512,-0.179443 0.124512,-0.41748 0,-0.292969 -0.172119,-0.483399 -0.1721193,-0.190429 -0.4357911,-0.238037 -0.1940918,-0.03662 -0.7800293,-0.03662 l -0.5236817,0 z" /><path
       id="path3350"
       style="font-style:normal;font-variant:normal;font-weight:bold;font-stretch:normal;font-size:7.5px;font-family:arial;-inkscape-font-specification:'arial Bold';text-align:center;text-anchor:middle"
       d="m 16.609619,40.431354 -1.179199,0 -0.46875,-1.219482 -2.145996,0 -0.443115,1.219482 -1.149903,0 2.091065,-5.368652 1.14624,0 2.149658,5.368652 z m -1.995849,-2.124023 -0.739747,-1.992187 -0.725097,1.992187 1.464844,0 z" /><path
       id="path3352"
       style="font-style:normal;font-variant:normal;font-weight:bold;font-stretch:normal;font-size:7.5px;font-family:arial;-inkscape-font-specification:'arial Bold';text-align:center;text-anchor:middle"
       d="m 16.913574,38.684528 1.054688,-0.102539 q 0.09521,0.531006 0.384521,0.78003 0.292969,0.249023 0.787354,0.249023 0.523681,0 0.787353,-0.219727 0.267334,-0.223388 0.267334,-0.520019 0,-0.19043 -0.113525,-0.322266 -0.109863,-0.135498 -0.388184,-0.234375 -0.190429,-0.06592 -0.86792,-0.234375 -0.871582,-0.216064 -1.223144,-0.531006 -0.494385,-0.443115 -0.494385,-1.080322 0,-0.410156 0.230713,-0.765381 0.234375,-0.358886 0.670166,-0.545654 0.439453,-0.186768 1.05835,-0.186768 1.010742,0 1.519775,0.443116 0.512695,0.443115 0.53833,1.182861 l -1.083984,0.04761 q -0.06958,-0.413818 -0.300293,-0.593261 -0.227051,-0.183106 -0.684815,-0.183106 -0.472412,0 -0.739746,0.194092 -0.172119,0.124512 -0.172119,0.333252 0,0.19043 0.161133,0.325928 0.205078,0.172119 0.996094,0.358886 0.791015,0.186768 1.168212,0.388184 0.38086,0.197754 0.593262,0.545654 0.216065,0.344239 0.216065,0.853272 0,0.461426 -0.256348,0.864258 -0.256348,0.402832 -0.725098,0.600586 -0.46875,0.194091 -1.168213,0.194091 -1.018066,0 -1.56372,-0.46875 -0.545655,-0.472412 -0.651856,-1.373291 z" /><path
       id="path3354"
       style="font-style:normal;font-variant:normal;font-weight:bold;font-stretch:normal;font-size:7.5px;font-family:arial;-inkscape-font-specification:'arial Bold';text-align:center;text-anchor:middle"
       d="m 21.92334,38.684528 1.054687,-0.102539 q 0.09521,0.531006 0.384522,0.78003 0.292969,0.249023 0.787353,0.249023 0.523682,0 0.787354,-0.219727 0.267334,-0.223388 0.267334,-0.520019 0,-0.19043 -0.113526,-0.322266 -0.109863,-0.135498 -0.388183,-0.234375 -0.19043,-0.06592 -0.86792,-0.234375 -0.871582,-0.216064 -1.223145,-0.531006 -0.494384,-0.443115 -0.494384,-1.080322 0,-0.410156 0.230713,-0.765381 0.234375,-0.358886 0.670166,-0.545654 0.439453,-0.186768 1.058349,-0.186768 1.010742,0 1.519776,0.443116 0.512695,0.443115 0.53833,1.182861 l -1.083985,0.04761 q -0.06958,-0.413818 -0.300293,-0.593261 -0.227051,-0.183106 -0.684814,-0.183106 -0.472412,0 -0.739746,0.194092 -0.172119,0.124512 -0.172119,0.333252 0,0.19043 0.161132,0.325928 0.205079,0.172119 0.996094,0.358886 0.791016,0.186768 1.168213,0.388184 0.380859,0.197754 0.593262,0.545654 0.216064,0.344239 0.216064,0.853272 0,0.461426 -0.256347,0.864258 -0.256348,0.402832 -0.725098,0.600586 -0.46875,0.194091 -1.168213,0.194091 -1.018066,0 -1.563721,-0.46875 -0.545654,-0.472412 -0.651855,-1.373291 z" /></g></svg>