<?xml version="1.0" encoding="UTF-8" standalone="no"?>
<svg
   xmlns:dc="http://purl.org/dc/elements/1.1/"
   xmlns:cc="http://creativecommons.org/ns#"
   xmlns:rdf="http://www.w3.org/1999/02/22-rdf-syntax-ns#"
   xmlns:svg="http://www.w3.org/2000/svg"
   xmlns="http://www.w3.org/2000/svg"
   height="90"
   width="90"
   id="svg2"
   xml:space="preserve"
   enable-background="new 0 0 100 100"
   viewBox="0 0 90 90"
   y="0px"
   x="0px"
   version="1.1"><metadata
     id="metadata20"><rdf:RDF><cc:Work
         rdf:about=""><dc:format>image/svg+xml</dc:format><dc:type
           rdf:resource="http://purl.org/dc/dcmitype/StillImage" /><dc:title></dc:title></cc:Work></rdf:RDF></metadata><defs
     id="defs18" /><g
     transform="translate(-4,-4.999888)"
     id="g4"><path
       id="path6"
       d="m 63.334,13.666 c 0,4.791 -3.877,8.667 -8.667,8.667 C 49.876,22.333 46,18.457 46,13.666 46,8.876 49.876,5 54.667,5 c 4.79,0 8.667,3.876 8.667,8.666 l 0,0 z m 0,0" style="fill:#5cb85c" /><path
       id="path8"
       d="m 74.896,50.67 c -1.693,-0.762 -12.865,-6.314 -12.865,-6.314 0,0 -3.961,-8.446 -6.01,-13.067 -1.929,-4.351 -3.317,-5.484 -6.06,-5.484 l -4.232,0 c -2.217,0 -3.029,0.812 -4.384,1.574 l -11.442,9.733 c -1,0.575 -1.643,1.438 -2.031,2.657 l -2.455,16.47 c -0.355,2.625 1.033,3.742 2.607,4.063 1.27,0.271 3.182,-0.372 3.571,-2.218 0.305,-1.523 2.623,-14.998 2.623,-14.998 l 7.466,-5.738 c -1.235,5.722 -2.488,11.984 -2.895,14.118 -0.711,3.64 1.1,6.398 2.539,8.564 1.303,1.964 18.197,28.592 20.415,31.485 2.233,2.896 4.266,4.334 7.363,2.607 2.606,-1.456 2.166,-4.773 0.728,-7.229 C 68.396,84.437 51.35,56.713 51.35,56.713 l 2.86,-12.357 c 0,0 1.98,2.827 2.996,4.418 0.49,0.746 0.999,1.05 2.336,1.777 1.574,0.864 9.209,4.334 11.527,5.384 2.065,0.914 4.621,1.27 5.638,-0.559 1.032,-1.812 -0.27,-3.995 -1.811,-4.706 l 0,0 z m 0,0" style="fill:#5cb85c" /><path
       id="path10"
       d="m 37.181,61.876 -3.453,12.171 c 0,0 -7.211,10.428 -9.209,13.339 -1.506,2.2 -2.641,4.875 -0.067,6.822 2.895,2.183 5.214,-0.661 6.703,-2.354 1.371,-1.54 6.957,-9.344 8.531,-11.325 1.05,-1.337 1.625,-2.453 2.083,-3.571 0.287,-0.744 1.422,-3.825 2.149,-5.823 l -6.737,-9.259 z m 0,0" style="fill:#5cb85c" /></g></svg>