<?xml version="1.0" encoding="UTF-8" standalone="no"?>
<svg
   xmlns:dc="http://purl.org/dc/elements/1.1/"
   xmlns:cc="http://creativecommons.org/ns#"
   xmlns:rdf="http://www.w3.org/1999/02/22-rdf-syntax-ns#"
   xmlns:svg="http://www.w3.org/2000/svg"
   xmlns="http://www.w3.org/2000/svg"
   xmlns:xlink="http://www.w3.org/1999/xlink"
   id="svg2"
   viewBox="0,0 500,300"
   height="360"
   width="600"
   version="1.0">
  <metadata
     id="metadata46">
    <rdf:RDF>
      <cc:Work
         rdf:about="">
        <dc:format>image/svg+xml</dc:format>
        <dc:type
           rdf:resource="http://purl.org/dc/dcmitype/StillImage" />
        <dc:title></dc:title>
      </cc:Work>
    </rdf:RDF>
  </metadata>
  <defs
     id="defs4">
    <g
       id="s">
      <g
         id="c">
        <path
           fill="#fcd116"
           transform="rotate(18 0,-1)"
           d="M 0,-1 v 1 h .5"
           id="t" />
        <use
           id="use9"
           transform="scale(-1,1)"
           xlink:href="#t" />
      </g>
      <use
         id="use11"
         transform="rotate(72)"
         xlink:href="#c" />
      <use
         id="use13"
         transform="rotate(144)"
         xlink:href="#c" />
      <use
         id="use15"
         transform="rotate(216)"
         xlink:href="#c" />
      <use
         id="use17"
         transform="rotate(288)"
         xlink:href="#c" />
    </g>
  </defs>
  <rect
     y="1.6842858e-05"
     x="0"
     height="299.99997"
     width="499.99997"
     id="rect3409"
     style="fill:#cacaca;fill-opacity:1;fill-rule:nonzero;stroke:none;stroke-width:1.49999988;stroke-linecap:round;stroke-linejoin:round;stroke-miterlimit:4;stroke-dasharray:none;stroke-opacity:1" />
  <g
     id="flowRoot4211"
     style="font-style:normal;font-weight:normal;font-size:9px;line-height:125%;font-family:arial;-inkscape-font-specification:arial;letter-spacing:0px;word-spacing:0px;fill:#ffffff;fill-opacity:1;stroke:none;stroke-width:1px;stroke-linecap:butt;stroke-linejoin:miter;stroke-opacity:1"
     transform="matrix(0.8333333,0,0,0.8333333,88.587567,-6.355932)">
    <path
       id="path4264"
       style="font-style:normal;font-variant:normal;font-weight:800;font-stretch:normal;font-size:250px;font-family:'Open Sans';-inkscape-font-specification:'Open Sans Ultra-Bold';fill:#ffffff;fill-opacity:1"
       d="m 171.77441,212.79113 0,-10.49804 q 0,-11.96289 4.88282,-20.1416 4.88281,-8.30079 17.33398,-16.11329 9.8877,-6.22558 14.16016,-11.23046 4.39453,-5.00489 4.39453,-11.47461 0,-5.12696 -4.63867,-8.05664 -4.63868,-3.05176 -12.08496,-3.05176 -18.43262,0 -43.09082,13.06152 l -16.96778,-33.20312 q 30.39551,-17.333988 63.47656,-17.333988 27.22168,0 42.72461,11.962888 15.50293,11.96289 15.50293,32.59278 0,14.7705 -6.958,25.63476 -6.83594,10.74219 -21.97266,20.38574 -12.81738,8.30078 -16.11328,12.20703 -3.17383,3.78418 -3.17383,9.03321 l 0,6.22558 -37.47559,0 z m -5.24902,42.72461 q 0,-11.23047 6.46973,-17.33398 6.59179,-6.10352 19.28711,-6.10352 12.20703,0 18.67675,6.22559 6.5918,6.10351 6.5918,17.21191 0,11.1084 -6.83594,17.21192 -6.71386,6.10351 -18.43261,6.10351 -12.08496,0 -18.9209,-5.98144 -6.83594,-6.10352 -6.83594,-17.33399 z" />
  </g>
</svg>
